 <svg  version="1.0" xmlns="http://www.w3.org/2000/svg"  width="900.000000pt" height="900.000000pt" viewBox="0 0 900.000000 900.000000"  preserveAspectRatio="xMidYMid meet">  <rect width="900" height="900" fill="#000000"/>  <g transform="translate(0.000000,900.000000) scale(0.100000,-0.100000)" fill="#ffffff" stroke="none"> <path d="M0 4500 l0 -4500 4500 0 4500 0 0 4500 0 4500 -4500 0 -4500 0 0 -4500z m4022 2071 c97 -33 162 -80 217 -155 91 -126 90 -121 90 -821 0 -651 -1 -665 -55 -765 -31 -58 -112 -145 -147 -160 -12 -6 -29 -14 -37 -19 -86 -49 -50 -46 -585 -51 -625 -6 -698 -3 -787 39 -67 32 -149 102 -183 156 -78 123 -78 122 -78 805 0 508 2 603 15 650 22 76 37 107 79 166 55 76 95 104 229 162 17 7 213 11 606 11 545 1 584 0 636 -18z m2188 0 c164 -58 252 -153 296 -319 20 -76 20 -1229 0 -1314 -40 -165 -195 -312 -351 -332 -75 -10 -1161 -11 -1225 -2 -172 26 -318 168 -356 346 -20 94 -20 1183 0 1285 16 84 53 158 107 214 45 47 136 111 159 111 8 1 26 7 40 15 21 12 127 14 650 15 594 0 628 -1 680 -19z m-2185 -2249 c75 -27 107 -46 166 -101 58 -53 109 -142 128 -224 17 -75 15 -1163 -3 -1247 -35 -166 -164 -295 -336 -336 -80 -19 -1101 -19 -1180 0 -71 18 -106 33 -155 71 -95 72 -142 141 -171 251 -20 79 -22 1185 -1 1269 27 111 93 205 190 268 104 67 80 65 727 66 539 1 590 0 635 -17z m2193 -2 c98 -37 158 -81 211 -154 91 -127 91 -124 91 -796 0 -596 -2 -625 -41 -715 -34 -78 -135 -179 -214 -214 -86 -38 -126 -40 -725 -40 -674 0 -686 1 -795 84 -93 71 -148 155 -171 265 -20 94 -20 1146 0 1240 32 151 140 275 287 329 51 18 85 19 679 20 602 1 627 0 678 -19z"/> <path d="M2825 6333 c-48 -25 -95 -74 -116 -122 -18 -41 -19 -71 -19 -616 0 -550 1 -574 20 -616 24 -54 45 -79 90 -110 l35 -24 555 0 555 0 37 23 c44 28 79 72 101 130 15 38 17 101 17 597 0 537 -1 556 -21 607 -25 65 -60 103 -118 129 -41 18 -70 19 -575 19 -464 -1 -535 -3 -561 -17z m1135 -633 c0 -54 -3 -105 -6 -114 -5 -14 -34 -16 -222 -16 -288 0 -262 29 -262 -286 0 -194 -3 -244 -14 -253 -9 -8 -50 -11 -117 -9 l-104 3 -3 284 c-2 237 0 288 13 314 8 16 15 35 15 42 0 16 87 103 124 123 26 14 71 18 286 22 140 3 263 1 273 -3 14 -7 17 -22 17 -107z"/> <path d="M4921 6330 c-53 -30 -81 -61 -107 -119 l-24 -55 2 -575 c3 -656 -2 -616 92 -695 l48 -41 552 -3 c303 -2 578 -1 612 3 53 5 67 12 108 48 87 77 86 66 86 704 0 535 -1 554 -21 605 -24 62 -57 100 -111 128 -37 19 -57 20 -621 19 -551 0 -584 -1 -616 -19z m627 -544 c51 -26 100 -74 125 -121 30 -58 37 -125 37 -373 0 -202 -3 -252 -14 -261 -9 -8 -48 -11 -112 -9 l-99 3 -5 242 c-5 226 -6 243 -26 270 l-21 28 -244 5 -244 5 -3 118 -3 117 281 0 c277 0 281 0 328 -24z"/> <path d="M2820 4081 c-50 -27 -87 -67 -110 -119 -19 -43 -20 -69 -20 -592 0 -528 1 -549 20 -593 27 -61 69 -101 127 -121 40 -14 115 -16 555 -16 378 0 519 3 550 13 56 17 119 80 141 142 15 45 17 100 17 582 0 471 -2 538 -16 575 -21 52 -66 103 -116 129 -35 18 -65 19 -575 19 -505 -1 -540 -2 -573 -19z m644 -147 c3 -9 6 -122 6 -252 0 -205 2 -238 17 -254 15 -16 36 -18 233 -18 174 0 220 -3 229 -14 8 -9 11 -50 9 -117 l-3 -104 -260 -3 c-251 -3 -262 -2 -305 19 -61 31 -122 96 -143 155 -15 42 -17 87 -17 320 0 149 3 274 7 277 3 4 55 7 114 7 88 0 108 -3 113 -16z"/> <path d="M4927 4081 c-55 -26 -87 -59 -113 -119 l-24 -53 0 -543 c0 -519 1 -545 20 -588 26 -60 60 -95 116 -118 44 -19 70 -20 606 -20 414 0 571 3 602 12 53 16 116 81 139 144 15 44 17 99 17 576 0 469 -2 532 -17 570 -25 65 -69 115 -120 138 -44 19 -65 20 -617 19 -523 -1 -574 -2 -609 -18z m777 -157 c11 -27 7 -483 -5 -532 -20 -91 -71 -157 -151 -198 -47 -24 -51 -24 -328 -24 l-281 0 3 118 3 117 248 5 247 5 20 30 c18 28 20 48 20 256 0 124 3 229 7 232 3 4 52 7 109 7 84 0 103 -3 108 -16z"/> </g> </svg> 